<svg id="圖層_1" data-name="圖層 1" xmlns="http://www.w3.org/2000/svg" viewBox="0 0 500 500"><defs><style>.cls-1,.cls-3{fill:#fff;}.cls-2,.cls-5,.cls-6{fill:#231815;}.cls-3,.cls-4,.cls-5,.cls-6{stroke:#231815;stroke-miterlimit:10;}.cls-3,.cls-4,.cls-5{stroke-width:12px;}.cls-4{fill:none;}</style></defs><path class="cls-1" d="M124.77,272.69c132.93,73.77,247.59,0,247.59,0"/><path class="cls-2" d="M124.77,272.69a387.68,387.68,0,0,0,61,19.84,286,286,0,0,0,62.78,6.9c2.63.07,5.26-.05,7.89-.12l4-.12c1.32,0,2.63-.17,3.94-.24,2.63-.18,5.27-.25,7.89-.53l7.87-.77a315,315,0,0,0,31.29-5.19c10.36-2.26,20.65-5,30.82-8.3a287.67,287.67,0,0,0,30.14-11.47,121.08,121.08,0,0,1-13.51,9.18q-7,4.2-14.43,7.76a214.35,214.35,0,0,1-30.63,12,228.8,228.8,0,0,1-32.19,7.35c-2.73.39-5.47.71-8.2,1.06s-5.5.51-8.25.78-5.51.35-8.27.46-5.52.25-8.29.19a219.18,219.18,0,0,1-65.24-9.82A212.12,212.12,0,0,1,124.77,272.69Z"/><path class="cls-3" d="M92.18,186.76s153.69,157.78,315.74-.27c0,0-149.53-153.21-311.71,4.7"/><line class="cls-4" x1="250.1" y1="186.17" x2="249.19" y2="451.93"/><path class="cls-2" d="M333.11,362.93c-13.92,4.26-27.84,6.45-41.76,8a384.28,384.28,0,0,1-41.76,2.18,394.68,394.68,0,0,1-41.76-2.2c-13.92-1.58-27.84-3.77-41.76-8v-1.2l20.88-.29,20.88-.1,41.76-.2,41.76.2,20.88.1,20.88.29Z"/><ellipse class="cls-5" cx="250.1" cy="186.17" rx="55.76" ry="66.38"/><path class="cls-6" d="M221.27,451.93h57.66C249.75,464.73,250.1,491,250.1,491S250.45,464.73,221.27,451.93Z"/><path class="cls-5" d="M92.4,135.33c3.65-60.1,5.65-60.54,39.32-28.42a4.73,4.73,0,0,1-.28,7.09l-19.29,15.57-12.09,9.73A4.72,4.72,0,0,1,92.4,135.33Z"/><path class="cls-5" d="M188.77,70.48c47.66-73.16,75.07-72.95,114.92.65A9.7,9.7,0,0,1,295,85.45l-45.62-.64-52.4.65A9.7,9.7,0,0,1,188.77,70.48Z"/><path class="cls-5" d="M406.51,135.33c-3.65-60.1-5.66-60.54-39.32-28.42a4.72,4.72,0,0,0,.28,7.09l19.28,15.57,12.09,9.73A4.72,4.72,0,0,0,406.51,135.33Z"/></svg>